<?xml version="1.0" encoding="utf-8"?><svg version="1.1" id="Layer_1" xmlns="http://www.w3.org/2000/svg" xmlns:xlink="http://www.w3.org/1999/xlink" x="0px" y="0px" viewBox="0 0 72.58 122.88" style="enable-background:new 0 0 72.58 122.88" xml:space="preserve"><g><path d="M0.01,121.45l2.97-95.39c-0.03-0.08-0.06-0.17-0.07-0.26c-0.04-0.26,0-0.52,0.1-0.74l0.51-16.5c0-0.02,0-0.05,0-0.07 c0-0.05,0-0.1,0.01-0.15v0l0.22-7.09C3.77,0.55,4.34,0,5.03,0v0h62.72c0.71,0,1.28,0.58,1.28,1.28v0v0v0v0v0v0v0v0v0l0,0l0,0v0v0v0 v0l0,0l0,0v0v0v0v0l0,0l0,0v0v0v0v0l0,0l0,0l0,0v0v0v0v0l0,0l0,0v0l0,0v0l0,0l0,0l0,0v0v0v0v0l0,0l0,0l0.2,6.86 c0.02,0.1,0.03,0.2,0.03,0.3c0,0.08-0.01,0.15-0.02,0.22l3.33,112.43c0.02,0.71-0.54,1.3-1.24,1.31l-0.04,0v0H48.42 c-0.68,0-1.24-0.53-1.28-1.21l-10.77-79.6l-11.14,80.09c-0.09,0.64-0.64,1.11-1.27,1.11v0H1.28c-0.71,0-1.28-0.58-1.28-1.28 C0,121.55,0,121.5,0.01,121.45L0.01,121.45z M40.18,9.8v17.37c0,0.65-0.27,1.24-0.69,1.67c-0.43,0.43-1.02,0.69-1.67,0.69h-2.94 c-0.63,0-1.21-0.26-1.62-0.67c-0.03-0.03-0.06-0.07-0.09-0.1c-0.36-0.4-0.58-0.94-0.58-1.52V9.8H22.14 c-0.91,5.17-2.94,8.97-5.85,11.7c-2.85,2.69-6.52,4.31-10.77,5.15l-2.92,93.66h20.25l12.27-88.24h0c0.08-0.56,0.52-1.02,1.1-1.09 c0.7-0.09,1.35,0.4,1.44,1.1l11.88,87.84h20.44l-2.76-93.23c-4.33-0.83-8.05-2.46-10.94-5.18c-2.9-2.73-4.93-6.54-5.85-11.7H40.18 L40.18,9.8z M37.61,9.8h-2.46v17.15h2.46V9.8L37.61,9.8z M53.04,9.8c0.85,4.36,2.57,7.55,5,9.84c2.39,2.25,5.49,3.65,9.11,4.42 L66.72,9.8H53.04L53.04,9.8z M5.6,24.02c3.54-0.78,6.58-2.17,8.93-4.38c2.42-2.28,4.15-5.48,5-9.84H6.05L5.6,24.02L5.6,24.02z"/></g></svg>